<svg width="34" height="30" viewBox="0 0 34 30" fill="none" xmlns="http://www.w3.org/2000/svg">
<path d="M14.4854 27.4376C14.6799 26.9367 14.7727 26.4021 14.7582 25.865C14.7879 24.3764 15.1857 22.9184 15.9162 21.621C16.6449 20.3258 17.684 19.2321 18.9402 18.438C19.4053 18.1885 19.815 17.8473 20.1444 17.4349C20.4739 17.0225 20.7162 16.5476 20.8568 16.0389C20.9974 15.5301 21.0333 14.9982 20.9624 14.4751C20.8915 13.9521 20.7152 13.4489 20.4442 12.996C20.0822 12.391 19.5612 11.895 18.9402 11.565C18.5842 11.318 18.2422 11.052 17.9162 10.767L17.0992 9.967C15.6021 8.3932 14.7626 6.30708 14.7522 4.135C14.7677 3.59777 14.6754 3.06288 14.4808 2.56188C14.2862 2.06089 13.9932 1.60395 13.6192 1.218C13.2468 0.832488 12.8006 0.52595 12.3072 0.316684C11.8137 0.107418 11.2832 -0.000286365 10.7472 5.71818e-07C10.2115 0.000756001 9.68144 0.108938 9.18831 0.318146C8.69517 0.527354 8.24901 0.833339 7.8762 1.218C7.50282 1.60462 7.2103 2.06183 7.01576 2.56287C6.82122 3.06391 6.72856 3.59872 6.7432 4.136C6.75194 4.83344 6.94403 5.5163 7.3002 6.116C7.65514 6.71469 8.16189 7.20902 8.7692 7.549C11.2282 9.105 12.9392 12.08 12.9392 15.006C12.9331 17.1592 12.1096 19.2298 10.6352 20.799L8.7752 22.451C8.1682 22.79 7.6612 23.284 7.3052 23.884C6.9482 24.483 6.7572 25.167 6.7482 25.865C6.7329 26.4022 6.82527 26.9371 7.01985 27.438C7.21443 27.939 7.5073 28.396 7.8812 28.782C8.25364 29.1674 8.69987 29.4739 9.1933 29.6832C9.68672 29.8924 10.2172 30.0002 10.7532 30C11.289 29.9994 11.8193 29.8913 12.3126 29.682C12.8059 29.4728 13.2523 29.1668 13.6252 28.782C13.9984 28.3955 14.2908 27.9384 14.4854 27.4376Z" fill="#8DA2FB"/>
<path d="M19.9172 6.36C19.4762 5.698 19.2412 4.919 19.2412 4.123C19.2419 3.05673 19.6643 2.034 20.4162 1.278C21.07 0.62024 21.9323 0.210504 22.8552 0.119089C23.7781 0.0276751 24.7041 0.260281 25.4742 0.777001C26.1339 1.2199 26.6475 1.84836 26.9502 2.583C27.2529 3.31848 27.332 4.12692 27.1774 4.9071C27.0228 5.68728 26.6415 6.40452 26.0812 6.969C25.5226 7.53193 24.8089 7.91563 24.0313 8.07112C23.2536 8.22661 22.4473 8.14685 21.7152 7.842C20.9824 7.53685 20.3566 7.02107 19.9172 6.36Z" fill="#8DA2FB"/>
<path d="M21.0222 22.518C21.6812 22.076 22.4562 21.84 23.2482 21.84V21.838C23.7747 21.8386 24.2959 21.9432 24.7818 22.1457C25.2678 22.3482 25.709 22.6446 26.0802 23.018C26.7361 23.6779 27.1441 24.544 27.2352 25.47C27.3263 26.3959 27.095 27.3249 26.5802 28.1C26.1408 28.762 25.5146 29.2785 24.7812 29.584C24.0491 29.8888 23.2428 29.9686 22.4651 29.8131C21.6875 29.6576 20.9738 29.2739 20.4152 28.711C19.8547 28.1464 19.4733 27.429 19.3187 26.6486C19.1641 25.8683 19.2432 25.0596 19.5462 24.324C19.849 23.5894 20.3626 22.9609 21.0222 22.518Z" fill="#8DA2FB"/>
<path d="M32.8252 12.758C33.265 13.4198 33.5 14.1974 33.5002 14.9931C33.4995 16.0597 33.0772 17.0827 32.3252 17.839C31.9539 18.2122 31.5127 18.5086 31.0267 18.7111C30.5408 18.9136 30.0197 19.0182 29.4932 19.019C28.7003 19.019 27.9254 18.783 27.2672 18.341C26.6075 17.8981 26.0939 17.2696 25.7912 16.535C25.4882 15.7994 25.4091 14.9907 25.5637 14.2104C25.7183 13.43 26.0997 12.7126 26.6602 12.148C27.2189 11.5849 27.9327 11.2011 28.7106 11.0456C29.4884 10.8901 30.295 10.9699 31.0272 11.275C31.7601 11.5804 32.3859 12.0966 32.8252 12.758Z" fill="#8DA2FB"/>
<path d="M2.28124 11.647C2.94024 11.205 3.71424 10.969 4.50724 10.969C5.03358 10.9701 5.55455 11.075 6.04032 11.2776C6.52609 11.4803 6.96714 11.7767 7.33824 12.15C7.99385 12.8097 8.40166 13.6754 8.49276 14.601C8.58385 15.5265 8.35266 16.4552 7.83824 17.23C7.39891 17.8914 6.77315 18.4075 6.04024 18.713C5.30788 19.0164 4.50191 19.0953 3.72459 18.9399C2.94727 18.7845 2.23364 18.4017 1.67424 17.84C1.11394 17.2755 0.732629 16.5583 0.578052 15.7781C0.423475 14.9979 0.502502 14.1895 0.805239 13.454C1.10783 12.719 1.62146 12.0902 2.28124 11.647Z" fill="#8DA2FB"/>
</svg>
